<svg xmlns="http://www.w3.org/2000/svg" width="263.158" height="231.477" viewBox="0 0 263.158 231.477"><defs><style>.a{fill:#a2e3cc;}.b{fill:#e6e6e6;}.c{fill:#9f616a;}.d{fill:#2f2e41;}.e{opacity:0.2;}.f{fill:#c9c5c5;}.g{fill:#3f3d56;}.h{fill:#fff;}</style></defs><g transform="translate(0 18.998)"><path class="a" d="M21.127,0A21.127,21.127,0,1,1,0,21.127,21.127,21.127,0,0,1,21.127,0Z" transform="translate(0 6.555)"/><path class="b" d="M982.96,599.4a38.307,38.307,0,0,1-1.789,10.589c-.025.08-.051.158-.077.237h-6.678c.007-.071.014-.151.021-.237.445-5.119,3.012-36.273-.057-41.6C974.648,568.816,983.477,583.131,982.96,599.4Z" transform="translate(-737.853 -435.795)"/><path class="b" d="M989.893,658.774c-.056.08-.114.159-.173.237h-5.01l.133-.237c.828-1.494,3.277-5.959,5.551-10.589,2.444-4.975,4.685-10.139,4.5-12.008C994.949,636.6,996.64,649.448,989.893,658.774Z" transform="translate(-745.288 -484.583)"/><rect class="b" width="192.023" height="0.628" transform="translate(71.135 173.973)"/><path class="c" d="M822.844,706.971l.933-7.7,26.352-6.763-3.032-9.095c2.112-6.057,5.819-9.026,12.593-6.063l11.651,7.238a7.438,7.438,0,0,1,3.5,6.719h0a7.432,7.432,0,0,1-4.231,6.317C857.568,703.812,840.943,706.178,822.844,706.971Z" transform="translate(-628.796 -513.384)"/><path class="d" d="M777.956,754.32l-8.162-1.166-7.634,1.558a3.3,3.3,0,0,1-3.954-3.094h0a3.3,3.3,0,0,1,1.31-2.771l11.963-9.013a5.4,5.4,0,0,1,7,.423l2.979,2.869a11.081,11.081,0,0,0-4.664,6.063Q779.863,750.879,777.956,754.32Z" transform="translate(-582.276 -558.401)"/><circle class="c" cx="7.548" cy="7.548" r="7.548" transform="translate(195.927 100.027)"/><path class="c" d="M855.141,503.515l-16.907,7.113c1.374-6.9,2.059-13.184,0-17.024l10.844-1.283C848.539,495.272,851.283,499.224,855.141,503.515Z" transform="translate(-639.872 -381.054)"/><path class="c" d="M766.785,649.064l-6.3-.466c-3.857-16.085-5.832-31.289-4.97-45.164a7.848,7.848,0,0,1,8-7.375h0a7.838,7.838,0,0,1,5.225,2.158l8.142,7.748a33.509,33.509,0,0,1,8.25,12.284c2.306,6.04,1.478,9.426-4.027,8.851a13.585,13.585,0,0,1-8.845-4.7l-5.948-6.913Z" transform="translate(-580.2 -455.71)"/><path class="d" d="M765.9,792.289h0a5.387,5.387,0,0,1-4.748-7.114l1.229-3.6.933-9.095c1.437-2.932,3.472-2.493,5.83-.233,1.5-.147,1.821-1.646,1.632-3.731l4.728,6.364a3.794,3.794,0,0,1,.407,3.836l-4.758,10.437A5.387,5.387,0,0,1,765.9,792.289Z" transform="translate(-584.19 -579.821)"/><path class="d" d="M865.577,651.716c-8.628,4.9-11.333,5.039-19.939,8.512l-7.462-4.2c-8.764,3.241-14.912-1.2-21.571-7.812,4.358-7.258,2.43-16.69,5.13-16.557l32.3,10.144,1.4,3.5Z" transform="translate(-624.306 -481.332)"/><path class="b" d="M848.557,560.622c-11.4,4.936-23.683-.29-34.164-11.777l-6.94-28.027a2.339,2.339,0,0,1,1.8-2.894l8.053-1.611,3.964,6.3,7.929-7,8.42,2.753A6.5,6.5,0,0,1,842,523.419Z" transform="translate(-617.664 -397.818)"/><path class="e" d="M882.856,728.069h0a4.118,4.118,0,0,1-1.675-6.512l5.331-6.288,3.731,2.1-1.921,7.833a4.118,4.118,0,0,1-5.466,2.867Z" transform="translate(-670.076 -541.505)"/><path class="c" d="M882.856,724.741h0a4.118,4.118,0,0,1-1.675-6.512l5.331-6.288,3.731,2.1-1.921,7.833a4.118,4.118,0,0,1-5.466,2.867Z" transform="translate(-670.076 -539.11)"/><path class="b" d="M904.975,582.4l-5.6-3.731,8.162-21.688-3.032-30.549,2.766,1.728a12.922,12.922,0,0,1,5.81,8.361l4.484,21.859C915.606,568.453,912.336,577.318,904.975,582.4Z" transform="translate(-683.876 -405.601)"/><path class="e" d="M776.661,555.922l2.8,13.992-2.3,8.183Z" transform="translate(-558.943 -413.756)"/><path class="d" d="M828.394,446.9s-4.35-14.236,8.944-11.25a10.172,10.172,0,0,1,5.261,3.23,1.281,1.281,0,0,0,1,.409c2.124,0,3.435,7.589-.812,10.926,0,0,.867-4.491-.709-6.021a3.381,3.381,0,0,1-.7-.9c-1.025-2.068-4.472-2.747-6.849-2.571-1.214.09-1.32,2.206-2.663,1.91C828.81,441.961,827.835,445.5,828.394,446.9Z" transform="translate(-632.301 -339.975)"/><path class="f" d="M850.96,550.7l-.088.645-.543,3.977-.89,6.513-.223,1.631a.52.52,0,0,1-.515.449h-5.933a.52.52,0,0,1-.515-.448l-.227-1.632-.9-6.513-.553-3.98-.089-.64a.52.52,0,0,1,.514-.591h9.449a.52.52,0,0,1,.515.59Z" transform="translate(-641.486 -422.645)"/><path class="g" d="M712.609,497.33h8.228a.52.52,0,0,1,.52.52v.686a.52.52,0,0,1-.52.52h-8.228a.52.52,0,0,1-.52-.52v-.686a.52.52,0,0,1,.52-.52Z" transform="translate(-512.473 -371.589)"/><path class="g" d="M848.552,548.76a55,55,0,0,1-11.935,0,.52.52,0,0,1-.52-.52h0v-.686a.519.519,0,0,1,.519-.52,48.9,48.9,0,0,0,11.935,0,.519.519,0,0,1,.52.519v.686A.52.52,0,0,1,848.552,548.76Z" transform="translate(-638.335 -420.43)"/><circle class="h" cx="2.243" cy="2.243" r="2.243" transform="translate(201.767 131.818)"/><path class="c" d="M845.384,580.986h0a4.118,4.118,0,0,1-5.058,4.43l-8.016-1.924.192-4.277,7.858-1.816a4.118,4.118,0,0,1,5.023,3.586Z" transform="translate(-635.609 -442.207)"/><path class="b" d="M770.638,544.657l-21.632.541a5.373,5.373,0,0,1-5.453-6.131h0A5.373,5.373,0,0,1,745.2,535.9l10.185-9.528a13.6,13.6,0,0,1,6.785-3.436l3.57-.669,2.1,15.858-12.126-1.4,14.225,1.632Z" transform="translate(-571.693 -402.607)"/><path class="d" d="M592.115,758.893H536.889a1.852,1.852,0,0,1-1.852-1.852h0a249.618,249.618,0,0,1,58.93,0h0A1.852,1.852,0,0,1,592.115,758.893Z" transform="translate(-421.669 -570.311)"/><path class="g" d="M593.967,660.957l-58.93-.109,6.83-11.492.033-.054V623.975a2.341,2.341,0,0,1,2.341-2.341h40.2a2.341,2.341,0,0,1,2.341,2.341v25.5Z" transform="translate(-421.669 -474.118)"/><path class="h" d="M565.72,627.463a.763.763,0,0,0-.762.763v23.093a.763.763,0,0,0,.762.763h40.63a.763.763,0,0,0,.763-.763V628.225a.763.763,0,0,0-.763-.763Z" transform="translate(-443.202 -478.312)"/><path class="d" d="M562.389,726.161a.328.328,0,0,0-.3.19l-2.1,4.575a.327.327,0,0,0,.3.463H604.54a.327.327,0,0,0,.292-.473l-2.287-4.575a.325.325,0,0,0-.292-.181Z" transform="translate(-439.604 -549.343)"/><circle class="h" cx="0.49" cy="0.49" r="0.49" transform="translate(142.18 147.789)"/><path class="d" d="M621.852,747.921a.327.327,0,0,0-.315.242l-.528,1.961a.327.327,0,0,0,.315.412h10.039a.327.327,0,0,0,.309-.434l-.679-1.961a.327.327,0,0,0-.309-.22Z" transform="translate(-483.533 -565.003)"/><path class="d" d="M473.692,672.346v.436H428.781l.034-.055v-.381Z" transform="translate(-308.583 -497.543)"/><path class="a" d="M602.912,670.228l15.219-.158,4.328-.045a.842.842,0,0,0,0-1.682l-15.219.158-4.328.045A.842.842,0,0,0,602.912,670.228Z" transform="translate(-469.933 -507.733)"/><path class="a" d="M602.912,684.228l15.219-.158,4.328-.045a.841.841,0,0,0,0-1.682l-15.219.158-4.328.045A.841.841,0,0,0,602.912,684.228Z" transform="translate(-469.933 -517.809)"/><path class="a" d="M602.912,656.228c3.766-.039,7.531-.107,11.3-.158q1.883-.026,3.766-.045a.841.841,0,0,0,0-1.682c-3.766.039-7.531.107-11.3.158q-1.883.026-3.766.045A.841.841,0,0,0,602.912,656.228Z" transform="translate(-469.933 -497.658)"/><path class="b" d="M491.45,565.086a49.1,49.1,0,0,0,2.293,13.572c.032.1.065.2.1.3H502.4c-.009-.091-.018-.193-.027-.3-.571-6.561-3.861-46.492.073-53.321C502.1,525.892,490.786,544.24,491.45,565.086Z" transform="translate(-390.28 -404.816)"/><path class="b" d="M476.612,641.192c.072.1.146.2.222.3h6.421c-.049-.087-.1-.189-.17-.3-1.061-1.915-4.2-7.638-7.115-13.572-3.132-6.377-6.005-13-5.763-15.391C470.132,612.769,467.965,629.239,476.612,641.192Z" transform="translate(-374.8 -467.349)"/><path class="g" d="M532.124,214.539l3.48-2.783a3.687,3.687,0,0,0-4.269,2.343,5.927,5.927,0,0,0-4.411.272l6.963,2.528A5.269,5.269,0,0,0,532.124,214.539Z" transform="translate(-415.83 -179.111)"/><path class="g" d="M906.008,163.434l3.48-2.783a3.687,3.687,0,0,0-4.269,2.343,5.927,5.927,0,0,0-4.411.272l6.962,2.528A5.269,5.269,0,0,0,906.008,163.434Z" transform="translate(-684.905 -142.332)"/><path class="g" d="M834.527,295.189l3.48-2.783a3.687,3.687,0,0,0-4.269,2.343,5.928,5.928,0,0,0-4.411.272l6.963,2.528A5.268,5.268,0,0,0,834.527,295.189Z" transform="translate(-633.462 -237.152)"/><ellipse class="b" cx="31.419" cy="64.108" rx="31.419" ry="64.108" transform="translate(10.795 -7.848) rotate(-10.221)"/><path class="g" d="M301.524,227.347q4.145,11.272,7.378,22.852t5.52,23.37q2.293,11.8,3.636,23.754,1.336,11.935,1.717,23.952t-.209,24.012q-.072,1.471-.159,2.942c-.059,1,1.5,1,1.562,0q.708-12.046.444-24.122-.265-12.007-1.491-23.967-1.229-11.995-3.4-23.869t-5.3-23.537q-3.122-11.655-7.18-23.033-.5-1.387-1-2.77c-.344-.936-1.854-.531-1.506.415Z" transform="translate(-253.578 -189.678)"/><path class="g" d="M336.333,281.656l6.92-15.364,1.95-4.331a.8.8,0,0,0-.28-1.068.787.787,0,0,0-1.068.28l-6.92,15.364-1.95,4.331a.8.8,0,0,0,.28,1.068A.787.787,0,0,0,336.333,281.656Z" transform="translate(-277.625 -214.425)"/><path class="g" d="M291.049,353.143l-15.778-5.916-4.447-1.667a.788.788,0,0,0-.961.545.8.8,0,0,0,.545.961l15.778,5.916,4.447,1.667a.788.788,0,0,0,.961-.545A.8.8,0,0,0,291.049,353.143Z" transform="translate(-230.812 -275.415)"/><path class="b" d="M301.672,664.5s19-6.247,36.7,0" transform="translate(-253.722 -502.967)"/></g></svg>