<svg xmlns="http://www.w3.org/2000/svg" width="263" height="201.842" viewBox="0 0 263 201.842"><defs><style>.a{fill:#f2f2f2;}.b{fill:#3f3d56;}.c{fill:#a2e3cc;}.d{fill:#2f2e41;}.e{fill:#ffb8b8;}.f{fill:#ccc;}</style></defs><g transform="translate(0)"><g transform="translate(142.465 153.268)"><path class="a" d="M658.775,660.151a12.024,12.024,0,0,1-1.268-4.752c-.29-2.9-.1-7.8,2.434-14.623a29.487,29.487,0,0,0-1.168-23.469l.292-.169a25.922,25.922,0,0,1,2.444,6.923,30.2,30.2,0,0,1-1.251,16.833c-4.8,12.909-1.231,19.02-1.195,19.081Z" transform="translate(-648.682 -612.163)"/><circle class="a" cx="2.193" cy="2.193" r="2.193" transform="translate(6.02)"/><circle class="a" cx="2.193" cy="2.193" r="2.193" transform="translate(12.935 8.096)"/><circle class="a" cx="2.193" cy="2.193" r="2.193" transform="translate(8.213 13.493)"/><circle class="a" cx="2.193" cy="2.193" r="2.193" transform="translate(13.947 18.047)"/><circle class="a" cx="2.193" cy="2.193" r="2.193" transform="translate(6.526 25.13)"/><path class="a" d="M664.59,724.691s-2.193-5.4,4.385-9.445Z" transform="translate(-653.173 -676.623)"/><path class="a" d="M640.693,731.6s-1-5.739-8.721-5.69Z" transform="translate(-631.972 -683.63)"/></g><path class="b" d="M309.09,243.493a8.864,8.864,0,1,1,8.864-8.864A8.864,8.864,0,0,1,309.09,243.493Zm0-17.423a8.559,8.559,0,1,0,8.559,8.559A8.559,8.559,0,0,0,309.09,226.071Z" transform="translate(-271.537 -201.748)"/><path class="b" d="M571.09,243.493a8.864,8.864,0,1,1,8.864-8.864A8.864,8.864,0,0,1,571.09,243.493Zm0-17.423a8.559,8.559,0,1,0,8.559,8.559A8.559,8.559,0,0,0,571.09,226.071Z" transform="translate(-443.681 -201.748)"/><path class="b" d="M376.44,217.469H222.023c-3.006.005-5.442,3.015-5.446,6.729v73.619c0,3.714,2.44,6.722,5.446,6.729H376.44c3.006-.005,5.442-3.015,5.446-6.729V224.2c0-3.714-2.44-6.722-5.446-6.729Zm4.806,80.348c0,3.277-2.153,5.933-4.806,5.937H222.023c-2.653,0-4.8-2.66-4.806-5.937V224.2c0-3.277,2.153-5.933,4.806-5.937H376.44c2.653,0,4.8,2.66,4.806,5.937Z" transform="translate(-216.577 -196.298)"/><rect class="a" width="27.437" height="19.206" transform="translate(11.318 50.782)"/><rect class="a" width="27.437" height="19.206" transform="translate(49.73 50.782)"/><rect class="a" width="27.437" height="19.206" transform="translate(88.141 50.782)"/><rect class="a" width="27.437" height="19.206" transform="translate(126.553 50.782)"/><rect class="a" width="27.437" height="19.206" transform="translate(11.318 78.905)"/><rect class="a" width="27.437" height="19.206" transform="translate(49.73 78.905)"/><rect class="a" width="27.437" height="19.206" transform="translate(88.141 78.905)"/><rect class="a" width="27.437" height="19.206" transform="translate(126.553 78.905)"/><path class="c" d="M375.818,397.673l-6.477-8.945,1.764-1.277,4.958,6.847,18.972-19.491,1.56,1.519Z" transform="translate(-316.948 -299.674)"/><path class="c" d="M488.818,315.673l-6.477-8.945,1.764-1.277,4.958,6.847,18.972-19.491,1.561,1.519Z" transform="translate(-391.193 -245.797)"/><rect class="d" width="0.469" height="32.921" transform="translate(37.201)"/><rect class="d" width="0.469" height="32.921" transform="translate(127.4)"/><path class="b" d="M731.813,742.454H601.744a.472.472,0,1,1,0-.941H731.813a.472.472,0,1,1,0,.941Z" transform="translate(-469.315 -540.613)"/><path class="c" d="M264.817,315.673l-6.477-8.945,1.764-1.277,4.958,6.847,18.972-19.491,1.56,1.519Z" transform="translate(-244.017 -245.797)"/><g transform="translate(201.682 73.958)"><path class="e" d="M867.941,484.544a3.609,3.609,0,0,1,.556-.119l7.511-15.262-2.293-3.437,4.735-4.139,5.953,7.285-12.124,17.645a3.6,3.6,0,1,1-4.338-1.972Z" transform="translate(-844.553 -430.65)"/><path class="f" d="M883.214,449.953a1.548,1.548,0,0,1-.349.274l-7.684,4.455a1.543,1.543,0,0,1-2.109-.561q-.032-.056-.06-.114l-3.738-7.9a1.535,1.535,0,0,1,.527-1.936l4.763-3.24a1.543,1.543,0,0,1,1.961.187l6.658,6.681a1.543,1.543,0,0,1,.029,2.15Z" transform="translate(-847.006 -416.905)"/><path class="e" d="M922.04,692.731l-4.057,1.1-6.189-15.125,5.988-1.629Z" transform="translate(-875.042 -572.237)"/><path class="d" d="M913.256,720.767l7.824-2.129,1.34,4.925-12.751,3.469a5.106,5.106,0,0,1,3.586-6.267h0Z" transform="translate(-873.528 -599.542)"/><path class="e" d="M828.649,700.67h-4.205l-2-16.218h6.206Z" transform="translate(-816.335 -577.08)"/><path class="d" d="M809.74,728.236h8.109v5.106H804.634a5.106,5.106,0,0,1,5.106-5.106Z" transform="translate(-804.634 -605.848)"/><circle class="e" cx="8.424" cy="8.424" r="8.424" transform="translate(8.32 1.799)"/><path class="d" d="M824.279,573.844h-5.746a1.548,1.548,0,0,1-1.543-1.448c-1.712-27.218-.711-46.742,3.152-61.443a1.617,1.617,0,0,1,.062-.189l.309-.769a1.536,1.536,0,0,1,1.433-.97h11.816a1.541,1.541,0,0,1,1.172.539l1.6,1.873c.031.036.061.074.089.113,7.236,10.092,13.722,29.822,21.233,56.341a1.538,1.538,0,0,1-1.015,1.892l-6.173,1.976a1.552,1.552,0,0,1-1.861-.8l-16.024-33.235a1.2,1.2,0,0,0-2.27.359l-4.71,34.428A1.549,1.549,0,0,1,824.279,573.844Z" transform="translate(-812.223 -461.818)"/><path class="f" d="M842.461,456.693h-.048l-14.353-.454a1.538,1.538,0,0,1-1.485-1.356c-1.818-14.727,3.17-18.673,5.4-19.686a1.187,1.187,0,0,0,.69-.941l.193-1.543a1.537,1.537,0,0,1,.3-.75,17.637,17.637,0,0,1,10.8-6.44,1.541,1.541,0,0,1,1.789,1.244q.007.038.012.076l.289,2.217a1.222,1.222,0,0,0,.245.58c7.291,9.532-.831,23.605-2.534,26.33h0A1.546,1.546,0,0,1,842.461,456.693Z" transform="translate(-818.793 -406.938)"/><path class="c" d="M836.332,516.768l-10.844,2.09-.412-2.139,8.3-1.6-9.647-25.432,2.036-.772Z" transform="translate(-817.18 -448.606)"/><path class="d" d="M852.188,382.553a33.525,33.525,0,0,0-6.689-7,19.88,19.88,0,0,0-7.1-3.757,11.016,11.016,0,0,0-7.875.7c-2.381,1.266-4.844,3.781-4.859,6.478,0,.867.216,2.039,1.069,1.889l.247.034,6.176-1.247,2.63,9.128a1.763,1.763,0,0,0,2.859,1.4c.1-.04.915-1.88.915-1.88a.343.343,0,0,1,.591-.1l.487.609a.686.686,0,0,0,.8.206l10.071-4.2c.464-.194.983-.446,1.117-.931A1.673,1.673,0,0,0,852.188,382.553Z" transform="translate(-818.45 -371.381)"/><path class="e" d="M858.527,505.03a3.685,3.685,0,0,0,.482-5.629l2.666-32.194-7.938,1.092-.151,31.278a3.7,3.7,0,0,0,4.939,5.453Z" transform="translate(-836.198 -434.342)"/><path class="f" d="M861.145,454.4a1.547,1.547,0,0,1-.439-.063l-8.521-2.506a1.543,1.543,0,0,1-1.045-1.916q.018-.062.041-.121l3.153-8.147a1.535,1.535,0,0,1,1.767-.951l5.63,1.224a1.543,1.543,0,0,1,1.215,1.551l-.262,9.429a1.543,1.543,0,0,1-1.539,1.5Z" transform="translate(-835.148 -416.898)"/></g></g></svg>